<!--suppress CheckTagEmptyBody, CheckTagEmptyBody -->eckTagEmptyBody -->eckTagEmptyBody -->eckTagEmptyBody -->eckTagEmptyBody -->eckTagEmptyBody -->eckTagEmptyBody -->eckTagEmptyBody -->eckTagEmptyBody -->eckTagEmptyBody -->eckTagEmptyBody -->eckTagEmptyBody -->
<svg id="visual" viewBox="0 0 1700 350" width="1700" height="350" xmlns="http://www.w3.org/2000/svg" version="1.1"><rect x="0" y="0" width="1700" height="350" fill="#a7a4f3"></rect><path d="M935 0L1044 400L0 400L0 0Z" fill="#a7a4f3"></path><path d="M1325 0L691 400L0 400L0 0Z" fill="#a29ff3"></path><path d="M692 0L632 400L0 400L0 0Z" fill="#9c99f3"></path><path d="M852 0L1005 400L0 400L0 0Z" fill="#9794f3"></path><path d="M956 0L660 400L0 400L0 0Z" fill="#918ef2"></path><path d="M556 0L613 400L0 400L0 0Z" fill="#8c89f2"></path><path d="M639 0L436 400L0 400L0 0Z" fill="#8683f2"></path><path d="M660 0L682 400L0 400L0 0Z" fill="#807ef2"></path><path d="M387 0L455 400L0 400L0 0Z" fill="#7b78f1"></path><path d="M465 0L285 400L0 400L0 0Z" fill="#7573f1"></path><path d="M203 0L253 400L0 400L0 0Z" fill="#6e6df0"></path><path d="M32 0L27 400L0 400L0 0Z" fill="#6868f0"></path></svg>