<svg id="visual" viewBox="0 0 1920 300" width="1920" height="300" xmlns="http://www.w3.org/2000/svg" xmlns:xlink="http://www.w3.org/1999/xlink" version="1.1"><path d="M0 127L22.8 137.3C45.7 147.7 91.3 168.3 137 173.7C182.7 179 228.3 169 274 160C319.7 151 365.3 143 411.2 137.2C457 131.3 503 127.7 548.8 135.8C594.7 144 640.3 164 686 170.8C731.7 177.7 777.3 171.3 823 153.5C868.7 135.7 914.3 106.3 960 99.7C1005.7 93 1051.3 109 1097 109.3C1142.7 109.7 1188.3 94.3 1234 110.8C1279.7 127.3 1325.3 175.7 1371.2 181C1417 186.3 1463 148.7 1508.8 145.3C1554.7 142 1600.3 173 1646 181.7C1691.7 190.3 1737.3 176.7 1783 178C1828.7 179.3 1874.3 195.7 1897.2 203.8L1920 212L1920 301L1897.2 301C1874.3 301 1828.7 301 1783 301C1737.3 301 1691.7 301 1646 301C1600.3 301 1554.7 301 1508.8 301C1463 301 1417 301 1371.2 301C1325.3 301 1279.7 301 1234 301C1188.3 301 1142.7 301 1097 301C1051.3 301 1005.7 301 960 301C914.3 301 868.7 301 823 301C777.3 301 731.7 301 686 301C640.3 301 594.7 301 548.8 301C503 301 457 301 411.2 301C365.3 301 319.7 301 274 301C228.3 301 182.7 301 137 301C91.3 301 45.7 301 22.8 301L0 301Z" fill="#000000" stroke-linecap="round" stroke-linejoin="miter"></path></svg>